<svg width="20" height="20" viewBox="0 0 20 20" fill="none" xmlns="http://www.w3.org/2000/svg">
<path fill-rule="evenodd" clip-rule="evenodd" d="M16.1332 3.81283C14.4923 2.18628 12.2725 1.27815 9.96204 1.28822C8.23899 1.29573 6.55687 1.81402 5.12838 2.77754C3.6999 3.74107 2.58922 5.10655 1.9368 6.70132C1.28437 8.29609 1.11951 10.0485 1.46306 11.737C1.8066 13.4255 2.64313 14.9741 3.86685 16.1872C5.09057 17.4002 6.64652 18.2231 8.33794 18.5518C10.0294 18.8806 11.7803 18.7004 13.3692 18.034C14.9582 17.3676 16.3139 16.245 17.2649 14.8081C18.2159 13.3712 18.7194 11.6846 18.7118 9.96157C18.7016 7.65114 17.774 5.43939 16.1332 3.81283ZM9.95643 9.50748e-05C12.6085 -0.0114615 15.1565 1.03094 17.04 2.898C18.9235 4.76506 19.9882 7.30384 19.9999 9.95589C20.0086 11.9337 19.4307 13.8697 18.3391 15.519C17.2475 17.1684 15.6914 18.457 13.8674 19.2219C12.0435 19.9868 10.0337 20.1937 8.09218 19.8163C6.15068 19.439 4.36466 18.4944 2.96 17.102C1.55535 15.7096 0.59513 13.9319 0.200785 11.9938C-0.193559 10.0557 -0.00432043 8.04415 0.74457 6.21358C1.49346 4.38301 2.76837 2.81562 4.40807 1.70963C6.04777 0.603636 7.97861 0.00871364 9.95643 9.50748e-05Z" fill="#1b1f26"/>
<path d="M14.3888 6.97547C13.761 6.79378 13.1101 6.53615 12.4512 6.27581C12.4132 6.11039 12.2668 5.90429 11.9705 5.65276C11.54 5.2792 10.7312 5.2887 10.0322 5.45412C9.26066 5.27242 8.49862 5.20802 7.7671 5.38632C1.78405 7.03446 5.17659 11.0555 2.97998 15.0975C3.29252 15.7606 6.66134 19.629 11.5359 18.5911C11.5359 18.5911 9.86879 14.585 13.6308 12.6623C16.6824 11.0968 18.8871 8.20056 14.3888 6.97547Z" fill="#1b1f26"/>
<path d="M15.1282 9.60702C15.1287 9.67876 15.1078 9.749 15.0683 9.80887C15.0287 9.86874 14.9723 9.91555 14.9062 9.94337C14.8401 9.97119 14.7672 9.97878 14.6968 9.96518C14.6263 9.95158 14.5615 9.9174 14.5105 9.86696C14.4595 9.81652 14.4246 9.75208 14.4102 9.68181C14.3958 9.61153 14.4026 9.53856 14.4297 9.47213C14.4567 9.4057 14.5029 9.34879 14.5623 9.3086C14.6218 9.26841 14.6918 9.24675 14.7635 9.24634C14.8111 9.24608 14.8584 9.25519 14.9025 9.27317C14.9466 9.29115 14.9867 9.31765 15.0206 9.35114C15.0544 9.38463 15.0814 9.42447 15.0999 9.46837C15.1183 9.51228 15.128 9.55939 15.1282 9.60702Z" fill="#2a313c"/>
<path d="M10.0327 5.45138C10.4686 5.48257 12.0449 5.99375 12.4517 6.27308C12.1127 5.29003 10.9717 5.15918 10.0327 5.45138Z" fill="#1b1f26"/>
<path d="M10.447 7.93792C10.4472 8.26889 10.3491 8.59247 10.1654 8.86772C9.98157 9.14297 9.72028 9.35754 9.41454 9.48428C9.1088 9.61102 8.77234 9.64424 8.44772 9.57974C8.1231 9.51524 7.82489 9.35591 7.59083 9.12191C7.35677 8.88792 7.19736 8.58976 7.13276 8.26515C7.06817 7.94055 7.10129 7.60408 7.22795 7.2983C7.3546 6.99253 7.56909 6.73118 7.84429 6.54732C8.11949 6.36346 8.44304 6.26534 8.77401 6.26538C9.21762 6.26543 9.64306 6.44165 9.95678 6.75529C10.2705 7.06892 10.4468 7.49431 10.447 7.93792Z" fill="#2a313c"/>
<path d="M9.95107 7.95258C9.95107 8.18536 9.88204 8.41291 9.75271 8.60646C9.62339 8.80001 9.43958 8.95086 9.22452 9.03994C9.00946 9.12902 8.77281 9.15233 8.54451 9.10692C8.3162 9.0615 8.10649 8.94941 7.94189 8.78481C7.77729 8.62021 7.6652 8.4105 7.61978 8.18219C7.57437 7.95389 7.59768 7.71724 7.68676 7.50218C7.77584 7.28713 7.92669 7.10331 8.12024 6.97399C8.31379 6.84466 8.54134 6.77563 8.77412 6.77563C9.08626 6.77563 9.38563 6.89963 9.60635 7.12036C9.82707 7.34108 9.95107 7.64044 9.95107 7.95258Z" fill="#1b1f26"/>
<path d="M16.4836 10.3442C15.1277 11.2995 13.586 12.0242 11.3989 12.0242C10.3751 12.0242 10.1677 10.9395 9.49106 11.4697C9.1419 11.7449 7.91072 12.3605 6.93377 12.3137C5.95682 12.2669 4.37309 11.6941 3.93173 9.60864C3.75682 11.6941 3.66733 13.2303 2.88428 14.991C4.4436 17.488 8.16156 19.4141 11.5365 18.5842C11.1738 16.052 13.3866 13.572 14.6334 12.3029C15.108 11.8222 16.0097 11.0378 16.4836 10.3429V10.3442Z" fill="#1b1f26"/>
<path d="M16.4304 10.4068C16.0094 10.7905 15.5084 11.0746 14.9986 11.3254C14.4825 11.5704 13.9446 11.7663 13.3918 11.9105C12.8386 12.0535 12.2616 12.1613 11.6772 12.1085C11.0928 12.0556 10.4955 11.8569 10.1084 11.419L10.1267 11.3979C10.6013 11.7057 11.1491 11.8142 11.6942 11.8298C12.2467 11.8466 12.7993 11.8011 13.3416 11.6942C13.8894 11.5795 14.4253 11.4138 14.9423 11.1993C15.4596 10.9857 15.9714 10.7383 16.4121 10.3857L16.4304 10.4068Z" fill="#2a313c"/>
</svg>
