<svg width="24" height="24" viewBox="0 0 24 24" fill="none" xmlns="http://www.w3.org/2000/svg">
    <path fill-rule="evenodd" clip-rule="evenodd" d="M4 0a4 4 0 0 0-4 4v16a4 4 0 0 0 4 4h16a4 4 0 0 0 4-4V4a4 4 0 0 0-4-4H4zm-.61 11.565h1.85c.049 0 .087.039.087.087v2.84c0 .015-.002.051-.028.065 0 0-.614.435-1.626.435-1.222 0-2.673-.379-2.673-2.92C1 9.528 2.267 9 3.502 9c1.072 0 1.497.239 1.566.289a.081.081 0 0 1 .033.068l-.206.88c0 .048-.05.101-.104.085a4.24 4.24 0 0 1-.054-.018c-.175-.057-.449-.146-1.011-.146-.722 0-1.49.215-1.49 1.85 0 1.634.738 1.828 1.266 1.828.448 0 .61-.056.61-.056v-1.13h-.721a.087.087 0 0 1-.087-.088v-.91c0-.048.039-.087.087-.087zM14.686 9.23c.048 0 .086.039.086.087v5.486a.087.087 0 0 1-.086.088h-1.044a.087.087 0 0 1-.086-.088l.002-2.346h-1.623v2.346a.087.087 0 0 1-.086.088h-1.042a.087.087 0 0 1-.086-.088V9.318a.087.087 0 0 1 .086-.087h1.042c.047 0 .086.039.086.087v2.026h1.624V9.318a.089.089 0 0 1 .024-.062.088.088 0 0 1 .062-.025h1.041zm-8.153.138c.37 0 .671.305.671.683 0 .377-.3.683-.671.683a.678.678 0 0 1-.672-.683c0-.378.3-.683.672-.683zm.589 1.748v3.637c0 .09-.025.14-.128.14h-.936c-.085 0-.151-.031-.151-.138v-3.628c0-.048.042-.098.09-.098h1.039c.047 0 .086.04.086.088zm10.598-.087h1.034c.048 0 .086.04.086.088V14.8a.087.087 0 0 1-.085.087l-.668.003a.091.091 0 0 1-.076-.047c-.012-.024-.038-.224-.038-.224s-.55.38-1.232.38c-.831 0-1.435-.268-1.435-1.359v-2.523c0-.049.039-.088.086-.088h1.05c.047 0 .085.04.085.088v2.346c0 .367.099.537.472.537s.635-.193.635-.193v-2.69c0-.049.039-.088.086-.088zm2.814 2.799s.243.163.602.174c.502.016.664-.17.664-1.113 0-.894-.36-1.007-.731-.973-.295.026-.535.174-.535.174v1.738zm.023-2.653s.4-.264.987-.264S23 11.133 23 12.824C23 14.515 22.456 15 21.506 15c-.809 0-1.236-.407-1.236-.407s-.026.223-.044.252c-.018.03-.043.047-.075.047h-.725a.087.087 0 0 1-.087-.088V9.318a.087.087 0 0 1 .087-.087h1.044a.086.086 0 0 1 .086.087v1.858zm-11.218-.155h.781c.048 0 .086.039.086.087v.845a.087.087 0 0 1-.086.088h-.781v1.542c0 .233.13.412.514.412.074 0 .147-.007.202-.012.035-.004.062-.006.08-.006.045 0 .086.039.086.087v.742c0 .036-.019.068-.05.08a2.364 2.364 0 0 1-.62.102c-.567 0-1.407-.118-1.407-1.324v-1.623h-.546a.087.087 0 0 1-.087-.088v-.675a.088.088 0 0 1 .063-.083c.036-.01.57-.14.57-.14V9.98c0-.04.022-.058.063-.058h1.065c.045 0 .066.02.066.059v1.039z" fill="#fff" fill-opacity=".2"/>
</svg>
