<svg width="24" height="24" viewBox="0 0 24 24" fill="none" xmlns="http://www.w3.org/2000/svg">
    <path fill-rule="evenodd" clip-rule="evenodd" d="M4 0a4 4 0 0 0-4 4v16a4 4 0 0 0 4 4h16a4 4 0 0 0 4-4V4a4 4 0 0 0-4-4H4zm12.906 7.05A6.97 6.97 0 1 0 8.63 18.1c-1.306-.754-2.114-1.743-2.246-2.022.653-1.202.689-2.402.721-3.502.055-1.86.101-3.439 3.109-4.267.585-.143 1.194-.091 1.812.054l.007-.001-.007-.001c.712-.222 1.569-.14 1.888.54a.49.49 0 0 1 .044.108l.003.01v-.001.003l.01.004c.524.207 1.041.41 1.54.555 3.599.98 1.835 3.297-.606 4.55-2.904 1.484-1.765 4.52-1.681 4.731a6.973 6.973 0 0 0 4.588-3.015 6.97 6.97 0 0 0-.906-8.796zM11.966 4a8 8 0 1 1 .069 16 8 8 0 0 1-.07-16zm.166 7.094a1.338 1.338 0 1 0-2.225-1.486 1.338 1.338 0 0 0 2.225 1.486zm5.012 1.231c-.337.307-.737.535-1.145.735a7.28 7.28 0 0 1-1.286.468c-.442.115-.904.201-1.371.159-.468-.043-.946-.201-1.255-.552l.014-.017c.38.246.818.333 1.254.346.442.013.884-.023 1.318-.109a7.186 7.186 0 0 0 1.28-.396c.415-.17.824-.368 1.177-.65l.014.016zm-5.279-1.48a.8.8 0 1 0-1.33-.89.8.8 0 0 0 1.33.89z" fill="#fff" fill-opacity=".2"/>
</svg>
