<?xml version="1.0" encoding="UTF-8"?> <svg xmlns="http://www.w3.org/2000/svg" width="233" height="29" viewBox="0 0 233 29" fill="none"><path fill-rule="evenodd" clip-rule="evenodd" d="M45.3941 3.69409C45.7481 3.69409 45.9251 3.87109 45.9251 4.22509V12.3701H61.1531V4.22509C61.1531 3.87109 61.3301 3.69409 61.6841 3.69409H64.2811C64.6651 3.69409 64.8411 3.87109 64.8411 4.22509V23.8201C64.8411 24.1741 64.6651 24.3511 64.2811 24.3511H61.6841C61.3301 24.3511 61.1531 24.1741 61.1531 23.8201V15.4981H45.9251V23.8201C45.9251 24.1741 45.7481 24.3511 45.3941 24.3511H42.7971C42.4431 24.3511 42.2661 24.1741 42.2661 23.8201V4.22509C42.2661 3.87109 42.4431 3.69409 42.7971 3.69409H45.3941Z" fill="#FEFEFE"></path><path fill-rule="evenodd" clip-rule="evenodd" d="M76.444 17.0623H88.249L82.789 7.32434C82.671 7.14634 82.583 7.11734 82.435 7.11734H82.257C82.11 7.11734 82.022 7.14634 81.904 7.32434L76.444 17.0623ZM82.907 3.69434C84.176 3.69434 84.914 4.07834 85.74 5.55334L96.069 23.7613C96.275 24.1153 96.187 24.3513 95.774 24.3513H92.763C92.468 24.3513 92.321 24.2623 92.173 24.0273L89.842 19.8663H74.881L72.579 24.0273C72.461 24.2623 72.313 24.3513 71.988 24.3513H68.889C68.507 24.3513 68.418 24.1153 68.594 23.7613L78.864 5.55334C79.69 4.07834 80.428 3.69434 81.462 3.69434H82.907Z" fill="#FEFEFE"></path><path fill-rule="evenodd" clip-rule="evenodd" d="M101.769 3.69409C102.123 3.69409 102.3 3.87109 102.3 4.22509V16.2071C102.3 19.7771 103.421 20.9281 106.933 20.9281H118.885C119.269 20.9281 119.446 21.1051 119.446 21.4601V23.8201C119.446 24.1741 119.269 24.3511 118.885 24.3511H106.815C100.883 24.3511 98.6411 22.2261 98.6411 16.5601V4.22509C98.6411 3.87109 98.8181 3.69409 99.1721 3.69409H101.769Z" fill="#FEFEFE"></path><path fill-rule="evenodd" clip-rule="evenodd" d="M127.092 15.203V20.663C127.092 20.929 127.21 21.046 127.446 21.046H140.431C142.379 21.046 143.175 20.338 143.175 18.774V17.505C143.175 16.029 142.438 15.203 139.87 15.203H127.092ZM127.092 12.548H139.87C142.438 12.548 143.116 11.78 143.116 10.363V9.24197C143.116 7.70797 142.349 6.99897 140.372 6.99897H127.446C127.21 6.99897 127.092 7.14597 127.092 7.38297V12.548ZM141.11 3.69397C145.123 3.69397 146.657 5.28797 146.657 8.47397V9.92097C146.657 11.662 145.979 12.961 144.563 13.757C146.097 14.524 146.805 15.823 146.805 17.623V19.393C146.805 22.463 145.447 24.351 141.552 24.351H124.319C123.728 24.351 123.433 24.057 123.433 23.466V4.57897C123.433 3.98897 123.728 3.69397 124.319 3.69397H141.11Z" fill="#FEFEFE"></path><path fill-rule="evenodd" clip-rule="evenodd" d="M154.452 16.2947C154.452 19.8657 155.574 20.9867 159.086 20.9867H167.821C171.362 20.9867 172.454 19.8657 172.454 16.2947V11.7507C172.454 8.17973 171.362 7.05873 167.821 7.05873H159.086C155.574 7.05873 154.452 8.17973 154.452 11.7507V16.2947ZM167.969 3.69373C173.9 3.69373 176.142 5.81873 176.142 11.4847V16.5607C176.142 22.2267 173.9 24.3517 167.969 24.3517H158.968C153.036 24.3517 150.793 22.2267 150.793 16.5607V11.4847C150.793 5.81873 153.036 3.69373 158.968 3.69373H167.969Z" fill="#FEFEFE"></path><path fill-rule="evenodd" clip-rule="evenodd" d="M184.233 14.6423H196.421C198.811 14.6423 199.697 13.5803 199.697 11.4543V10.1863C199.697 8.06134 198.811 6.99834 196.421 6.99834H184.587C184.351 6.99834 184.233 7.08734 184.233 7.35334V14.6423ZM197.129 3.69434C201.586 3.69434 203.385 5.78834 203.385 9.71334V11.3373C203.385 14.7603 202.028 16.7673 198.753 17.2393L204.093 23.7023C204.271 23.9093 204.212 24.3513 203.769 24.3513H200.7C200.287 24.3513 200.139 24.2333 199.992 24.0273L194.946 17.5933H184.233V23.8203C184.233 24.1743 184.056 24.3513 183.702 24.3513H181.105C180.751 24.3513 180.574 24.1743 180.574 23.8203V4.57934C180.574 3.98934 180.869 3.69434 181.46 3.69434H197.129Z" fill="#FEFEFE"></path><path fill-rule="evenodd" clip-rule="evenodd" d="M212.745 3.69409C214.308 3.69409 214.663 4.01809 215.607 5.14009L228.444 20.6321C228.562 20.7811 228.681 20.8401 228.857 20.8401H229.152C229.33 20.8401 229.418 20.7511 229.418 20.5451V4.22509C229.418 3.87109 229.565 3.69409 229.949 3.69409H232.458C232.811 3.69409 232.989 3.87109 232.989 4.22509V21.7551C232.989 23.7611 232.251 24.3511 230.717 24.3511H228.621C227.145 24.3511 226.732 24.0861 225.759 22.9051L212.892 7.41209C212.774 7.26409 212.656 7.20609 212.479 7.20609H212.184C212.007 7.20609 211.948 7.29509 211.948 7.50109V23.8201C211.948 24.1741 211.77 24.3511 211.388 24.3511H208.879C208.524 24.3511 208.348 24.1741 208.348 23.8201V6.29109C208.348 4.28409 209.086 3.69409 210.591 3.69409H212.745Z" fill="#FEFEFE"></path><path fill-rule="evenodd" clip-rule="evenodd" d="M4.71248 28.0457H0.548479C0.153479 28.0457 -0.119521 27.6207 0.0524787 27.2767L13.5965 0.263732C13.6785 0.100732 13.8445 0.000732422 14.0315 0.000732422H18.1945C18.5895 0.000732422 18.8635 0.424732 18.6915 0.768732L5.14748 27.7817C5.06648 27.9447 4.89948 28.0457 4.71248 28.0457Z" fill="#8FC63E"></path><path fill-rule="evenodd" clip-rule="evenodd" d="M17.6519 28.0457H13.3499C13.0019 28.0457 12.7589 27.6707 12.9119 27.3667L26.5159 0.233732C26.5889 0.0887324 26.7349 0.000732422 26.8999 0.000732422H31.2019C31.5499 0.000732422 31.7929 0.375732 31.6399 0.679732L18.0359 27.8127C17.9639 27.9567 17.8169 28.0457 17.6519 28.0457Z" fill="#8FC63E"></path></svg> 