<svg width="24" height="24" viewBox="0 0 24 24" fill="none" xmlns="http://www.w3.org/2000/svg">
    <path fill-rule="evenodd" clip-rule="evenodd" d="M4 0a4 4 0 0 0-4 4v16a4 4 0 0 0 4 4h16a4 4 0 0 0 4-4V4a4 4 0 0 0-4-4H4zm12.797 13.494a.756.756 0 0 0 .374-.129h.002c.378-.236.58-.722.549-1.333v-.033a5.733 5.733 0 0 0-5.726-5.726c-3.155 0-5.716 2.568-5.716 5.726a5.7 5.7 0 0 0 .666 2.693l3.313-5.24c.4-.602.812-.634 1.086-.555.415.119.635.517.651 1.182v2.884l1.482-2.363.011-.018c.25-.393.869-1.37 1.694-1.132.495.143.792.667.792 1.405v1.535c0 .501.152.869.433 1.026.12.06.254.087.389.078zM19 11.97V12h-.007c.044 1.073-.375 1.964-1.143 2.456a2.033 2.033 0 0 1-2.05.081c-.7-.386-1.098-1.168-1.098-2.147v-1.335a4.05 4.05 0 0 0-.145.22L12.911 13.9c-.554.886-1.083.955-1.429.856-.345-.1-.757-.438-.757-1.485v-2.18l-2.981 4.723a5.65 5.65 0 0 0 1.8 1.351 5.727 5.727 0 0 0 6.352-.976.63.63 0 0 1 .889.041.636.636 0 0 1-.033.902A6.971 6.971 0 0 1 11.996 19C8.14 19 5 15.858 5 12c0-3.86 3.15-7 6.996-7 3.847 0 6.978 3.122 7.004 6.97z" fill="#fff" fill-opacity=".2"/>
</svg>
