<svg width="24" height="24" viewBox="0 0 24 24" fill="none" xmlns="http://www.w3.org/2000/svg">
    <path fill-rule="evenodd" clip-rule="evenodd" d="M4 0a4 4 0 0 0-4 4v16a4 4 0 0 0 4 4h16a4 4 0 0 0 4-4V4a4 4 0 0 0-4-4H4zm-.677 10.884L17.59 5.078c.772-.316 1.545.37 1.39 1.267L16.2 18.589a.537.537 0 0 1-.824.316l-4.017-3.008-2.112 2.006a.492.492 0 0 1-.824-.211L6.98 13.047l-3.606-1.16c-.463-.159-.515-.845-.051-1.003zm5.46 5.805.463-2.744 8.55-7.811-10.044 6.755 1.03 3.8z" fill="#fff" fill-opacity=".2"/>
</svg>
