<svg width="24" height="24" viewBox="0 0 24 24" fill="none" xmlns="http://www.w3.org/2000/svg">
    <path fill-rule="evenodd" clip-rule="evenodd" d="M4 0a4 4 0 0 0-4 4v16a4 4 0 0 0 4 4h16a4 4 0 0 0 4-4V4a4 4 0 0 0-4-4H4zm14.115 7.9A7.009 7.009 0 0 0 20 7.423l-.001.002a6.413 6.413 0 0 1-1.637 1.567c.006.13.01.261.01.391 0 4.003-3.302 8.617-9.34 8.617A9.86 9.86 0 0 1 4 16.64c.26.027.522.042.784.042a6.947 6.947 0 0 0 4.077-1.297 3.467 3.467 0 0 1-1.9-.598 3.05 3.05 0 0 1-1.167-1.505c.492.087 1 .069 1.483-.052a3.342 3.342 0 0 1-1.892-1.051 2.889 2.889 0 0 1-.742-1.918v-.04c.456.234.966.364 1.487.38a3.132 3.132 0 0 1-1.072-1.092 2.845 2.845 0 0 1-.388-1.43c0-.554.162-1.074.444-1.522a9.223 9.223 0 0 0 3.018 2.246 9.941 9.941 0 0 0 3.748.919 2.815 2.815 0 0 1 .205-1.94 3.143 3.143 0 0 1 1.442-1.423 3.525 3.525 0 0 1 2.084-.319 3.376 3.376 0 0 1 1.863.919 6.897 6.897 0 0 0 2.084-.735A3.092 3.092 0 0 1 18.115 7.9z" fill="#fff" fill-opacity=".2"/>
</svg>
