<svg width="32" height="32" viewBox="0 0 32 32" fill="none" xmlns="http://www.w3.org/2000/svg">
    <g clip-path="url(#a)">
        <path d="M24.543 21.257H11.457V9.54a.152.152 0 0 0-.153-.15H10.24a.152.152 0 0 0-.152.15V22.46c0 .082.068.15.152.15h14.304a.152.152 0 0 0 .153-.15v-1.052a.152.152 0 0 0-.153-.15zm-11.717-1.202h10.196a.152.152 0 0 0 .152-.15V11.72c0-.135-.166-.2-.26-.107l-4.001 3.949-2.385-2.328a.154.154 0 0 0-.215 0l-3.595 3.56a.149.149 0 0 0-.044.104v3.008c0 .083.068.15.152.15z" fill="#fff"/>
    </g>
    <defs>
        <clipPath id="a">
            <path fill="#fff" transform="translate(8 8)" d="M0 0h16v16H0z"/>
        </clipPath>
    </defs>
</svg>
