<?xml version="1.0" encoding="UTF-8" standalone="no"?>
<svg
   width="116"
   height="15.954875"
   viewBox="0 0 116 15.954875"
   fill="none"
   version="1.1"
   id="svg107"
   xmlns="http://www.w3.org/2000/svg"
   xmlns:svg="http://www.w3.org/2000/svg">
  <defs
     id="defs111" />
  <path
     fill-rule="evenodd"
     clip-rule="evenodd"
     d="M 59.85385,6.640006 C 60.11668,6.544116 60.3534,6.388007 60.54491,6.184191 60.74598,5.986379 60.8986,5.744852 60.99097,5.478417 60.83523,5.190221 60.77509,4.860019 60.81912,4.535423 c 0.044,-0.324596 0.19001,-0.62683 0.41696,-0.863115 0.22502,-0.230647 0.51953,-0.380996 0.83831,-0.427933 0.31879,-0.04694 0.64412,0.01216 0.92607,0.168168 0.26229,-0.09686 0.4988,-0.252827 0.69106,-0.455816 0.20053,-0.199122 0.35315,-0.441326 0.44606,-0.708223 -0.15574,-0.288195 -0.21589,-0.618398 -0.17185,-0.942994 0.044,-0.324602 0.19,-0.626831 0.41696,-0.863112 C 64.51952,0.302351 64.6831,0.191076 64.86366,0.115104 65.04421,0.039134 65.23808,0 65.43399,0 c 0.1958,0 0.38967,0.03913 0.57022,0.115104 0.18056,0.07597 0.34414,0.187247 0.48108,0.327294 0.22652,0.236477 0.37228,0.538678 0.41631,0.863187 0.044,0.32451 -0.0159,0.654627 -0.17131,0.942919 0.0929,0.266328 0.24457,0.50837 0.44359,0.708223 0.19355,0.202635 0.43071,0.358515 0.69353,0.455816 0.53897,0.01464 1.05109,0.238433 1.42798,0.624015 0.3769,0.385582 0.58902,0.902684 0.59128,1.441859 0.0925,0.266435 0.2451,0.507962 0.44606,0.705774 0.19162,0.203816 0.42824,0.359922 0.69106,0.455815 0.28195,-0.156009 0.60728,-0.215094 0.92607,-0.168167 0.31878,0.04694 0.6134,0.197286 0.83842,0.427932 0.28066,0.288271 0.43769,0.674712 0.43769,1.07705 0,0.402337 -0.15703,0.788789 -0.43769,1.077049 -0.22502,0.230646 -0.51964,0.381006 -0.83842,0.427932 -0.31879,0.04694 -0.64412,-0.01215 -0.92607,-0.168167 -0.26261,0.09495 -0.49933,0.250227 -0.69106,0.453366 -0.20053,0.199123 -0.35304,0.441337 -0.44606,0.708223 0.15542,0.288324 0.21535,0.618387 0.17132,0.942972 -0.044,0.324478 -0.18979,0.626615 -0.41632,0.863126 -0.22501,0.230711 -0.51953,0.380974 -0.83831,0.427911 -0.31879,0.04694 -0.64423,-0.01214 -0.92617,-0.168092 -0.26326,0.09634 -0.50063,0.2523 -0.69353,0.455729 -0.19903,0.199886 -0.35058,0.441982 -0.44349,0.708245 0.15531,0.288281 0.21524,0.618452 0.17121,0.94293 -0.044,0.324477 -0.18979,0.626722 -0.41631,0.863233 -0.13695,0.140059 -0.30053,0.251333 -0.48097,0.32727 -0.18056,0.07594 -0.37453,0.115141 -0.57034,0.115141 -0.19591,0 -0.38978,-0.0392 -0.57033,-0.115141 -0.18055,-0.07594 -0.34403,-0.187211 -0.48097,-0.32727 -0.22695,-0.236296 -0.37292,-0.538541 -0.41696,-0.863126 -0.044,-0.324585 0.0161,-0.654863 0.17186,-0.943037 -0.0929,-0.266907 -0.24543,-0.509111 -0.44596,-0.708245 -0.19161,-0.203751 -0.42834,-0.359922 -0.69117,-0.455729 -0.28183,0.155955 -0.60728,0.215029 -0.92606,0.168092 -0.31879,-0.04694 -0.6133,-0.1972 -0.83832,-0.427911 -0.22684,-0.236296 -0.37292,-0.53854 -0.41695,-0.863126 -0.044,-0.324585 0.0161,-0.654755 0.17185,-0.942972 -0.0929,-0.266886 -0.24543,-0.5091 -0.44596,-0.708223 C 60.36081,9.560801 60.12054,9.403717 59.85385,9.308737 59.57244,9.468989 59.24593,9.531843 58.9251,9.487527 58.60427,9.443207 58.30708,9.294215 58.0797,9.063676 57.79893,8.775405 57.6419,8.388964 57.6419,7.986627 c 0,-0.402338 0.15703,-0.788789 0.4378,-1.077049 0.22448,-0.234492 0.52028,-0.388096 0.84121,-0.436859 0.32093,-0.04876 0.64896,0.01006 0.93294,0.167287 z m 0.59311,0.607755 c 0.11943,0.224438 0.18194,0.474794 0.18194,0.72906 0,0.254265 -0.0625,0.504632 -0.18194,0.72906 0.0923,0.266628 0.24392,0.508799 0.44359,0.708233 0.19279,0.20343 0.43016,0.35945 0.69353,0.455816 0.28183,-0.15602 0.60728,-0.215105 0.92606,-0.168179 0.31879,0.04694 0.6133,0.197286 0.83832,0.427944 0.22652,0.236468 0.37227,0.538669 0.41631,0.863168 0.044,0.324478 -0.0159,0.654648 -0.17121,0.94293 0.0929,0.26637 0.24446,0.508359 0.44349,0.708244 0.19301,0.202785 0.43038,0.357989 0.69353,0.453367 0.21825,-0.121048 0.46368,-0.184526 0.71318,-0.184526 0.24951,0 0.49494,0.06348 0.71308,0.184526 0.26272,-0.09495 0.49945,-0.250259 0.69106,-0.453367 0.20064,-0.199133 0.35316,-0.441337 0.44606,-0.708244 -0.15531,-0.288282 -0.21535,-0.618452 -0.17131,-0.94293 0.044,-0.324499 0.18979,-0.6267 0.41642,-0.863168 0.22502,-0.230658 0.51953,-0.381007 0.83831,-0.427944 0.31879,-0.04693 0.64412,0.01216 0.92607,0.168179 0.26325,-0.09637 0.50062,-0.252386 0.69353,-0.455816 0.19956,-0.199434 0.35133,-0.441605 0.44359,-0.708233 -0.11954,-0.224428 -0.18206,-0.474795 -0.18206,-0.72906 0,-0.254266 0.0625,-0.504622 0.18206,-0.72906 C 70.34827,6.981143 70.19654,6.738972 69.99698,6.539538 69.80407,6.336097 69.5667,6.180088 69.30345,6.083722 68.88241,6.021272 68.48608,5.845976 68.15655,5.576448 67.68761,5.178879 67.37785,4.625462 67.28419,4.017848 67.19119,3.750951 67.03866,3.508748 66.83813,3.309625 66.65145,3.109106 66.42192,2.95329 66.16672,2.853809 c -0.21761,0.122832 -0.46325,0.187373 -0.71318,0.187373 -0.24983,0 -0.49547,-0.06454 -0.71308,-0.187373 -0.26283,0.09731 -0.49998,0.253192 -0.69353,0.455816 -0.19913,0.199853 -0.35069,0.441896 -0.44359,0.708223 0.15531,0.288292 0.21535,0.618409 0.17131,0.942919 -0.044,0.32451 -0.18979,0.626711 -0.41642,0.86319 C 63.13321,6.054604 62.8387,6.204963 62.51992,6.25189 62.20113,6.29883 61.8758,6.23974 61.59385,6.083722 61.3306,6.180092 61.09323,6.336097 60.90032,6.539538 60.69721,6.737962 60.54212,6.980209 60.44696,7.247761 Z"
     fill="#f5fff5"
     id="path85"
     style="stroke-width:0.107407" />
  <path
     fill-rule="evenodd"
     clip-rule="evenodd"
     d="m 67.90661,6.083722 c -0.26282,0.09589 -0.49944,0.251999 -0.69105,0.455816 -0.20107,0.198682 -0.3537,0.441025 -0.44607,0.708223 0.11955,0.224438 0.18206,0.474805 0.18206,0.72906 0,0.254265 -0.0625,0.504632 -0.18206,0.72906 0.0924,0.267197 0.245,0.50954 0.44607,0.708233 0.21288,0.231775 0.48473,0.401221 0.78665,0.490122 0.25735,0.06371 0.0735,0.431305 -0.0833,0.590601 -0.15682,0.159285 -0.51459,0.347978 -0.57592,0.08577 C 67.26059,10.293002 67.1126,10.028447 66.91068,9.807746 66.70864,9.587045 66.45817,9.416235 66.17902,9.308742 65.89836,9.467189 65.57335,9.529024 65.25413,9.48475 64.93492,9.44048 64.63901,9.292523 64.41206,9.063681 64.13258,8.77482 63.97631,8.388604 63.97631,7.986632 c 0,-0.401972 0.15627,-0.788188 0.43575,-1.077049 0.22523,-0.231216 0.52017,-0.38192 0.83949,-0.428857 0.31933,-0.04695 0.6452,0.01247 0.92747,0.169092 0.26218,-0.0971 0.49858,-0.253031 0.69106,-0.455816 0.19945,-0.198564 0.35111,-0.439919 0.44359,-0.705774 -0.15542,-0.288292 -0.21535,-0.618409 -0.17132,-0.942919 0.044,-0.32451 0.18979,-0.626711 0.41631,-0.86319 0.22524,-0.231216 0.52018,-0.381919 0.8395,-0.428856 0.31932,-0.04695 0.6452,0.01247 0.92746,0.169091 0.26197,-0.09741 0.49837,-0.253299 0.69106,-0.455816 0.19903,-0.199852 0.35058,-0.441895 0.44349,-0.708222 -0.15531,-0.288303 -0.21525,-0.618409 -0.17121,-0.942919 0.044,-0.324514 0.18979,-0.626714 0.41631,-0.863192 0.13695,-0.140421 0.30064,-0.252014 0.4814,-0.328208 0.18077,-0.07619 0.37496,-0.115445 0.57119,-0.115445 0.19613,0 0.39032,0.03925 0.57109,0.115445 0.18077,0.07619 0.34446,0.187787 0.4814,0.328208 0.22652,0.236478 0.37227,0.538678 0.41631,0.863192 0.044,0.32451 -0.0159,0.654616 -0.17121,0.942919 0.0999,0.264651 0.25821,0.503386 0.46314,0.698416 0.19312,0.201991 0.42931,0.357806 0.69106,0.455816 0.28324,-0.159038 0.61115,-0.21981 0.93262,-0.172808 0.32137,0.04699 0.61824,0.199101 0.84412,0.432573 0.22652,0.236478 0.37227,0.53868 0.41631,0.86319 0.044,0.32451 -0.0159,0.654627 -0.17132,0.942919 0.0925,0.265865 0.24414,0.50721 0.4436,0.705774 0.19247,0.202785 0.42887,0.358719 0.69106,0.455815 0.28452,-0.162088 0.61501,-0.224556 0.93917,-0.177501 0.32404,0.04706 0.62307,0.200948 0.8498,0.437266 0.28248,0.289324 0.44059,0.677623 0.44059,1.081958 0,0.404324 -0.15811,0.792634 -0.44059,1.081947 -0.22781,0.231678 -0.52597,0.381382 -0.84776,0.42572 -0.3219,0.04434 -0.64939,-0.01919 -0.93144,-0.180659 -0.26197,0.09615 -0.49848,0.251269 -0.69106,0.453366 -0.19903,0.199853 -0.35058,0.441896 -0.44349,0.708223 0.15532,0.288282 0.21525,0.618452 0.17121,0.94293 -0.044,0.324477 -0.18979,0.626722 -0.41631,0.863126 -0.22523,0.231248 -0.52017,0.38194 -0.8395,0.428877 -0.31932,0.04694 -0.64519,-0.01246 -0.92735,-0.169059 -0.2697,0.09581 -0.51319,0.253589 -0.71072,0.46067 -0.19902,0.199886 -0.35068,0.441982 -0.44359,0.708245 0.15542,0.288281 0.21535,0.618452 0.17132,0.94293 -0.044,0.324477 -0.18979,0.626722 -0.41631,0.863233 -0.13706,0.140381 -0.30075,0.251978 -0.48151,0.32813 -0.18077,0.07626 -0.37496,0.115462 -0.57109,0.115462 -0.19612,0 -0.39032,-0.0392 -0.57108,-0.115462 -0.18077,-0.07615 -0.34446,-0.187749 -0.4814,-0.32813 -0.22663,-0.236511 -0.37238,-0.538756 -0.41642,-0.863233 -0.044,-0.324478 0.016,-0.654649 0.17131,-0.94293 -0.0929,-0.266263 -0.24446,-0.508359 -0.44359,-0.708245 -0.21277,-0.231785 -0.48473,-0.401166 -0.78665,-0.4901 -0.25724,-0.06369 -0.0735,-0.43124 0.0833,-0.590525 0.15681,-0.159393 0.51459,-0.348 0.57592,-0.08582 0.084,0.305682 0.24714,0.583759 0.47291,0.8062 0.18958,0.205256 0.42458,0.363037 0.68623,0.460778 0.21846,-0.121478 0.46432,-0.185171 0.71436,-0.185171 0.24994,0 0.4958,0.06369 0.71437,0.185171 0.26261,-0.09495 0.49934,-0.250259 0.69106,-0.453367 0.20053,-0.199133 0.35305,-0.441337 0.44596,-0.708244 -0.15532,-0.288282 -0.21525,-0.618452 -0.17121,-0.94293 0.044,-0.324488 0.18979,-0.62669 0.41631,-0.863168 0.22512,-0.231216 0.52017,-0.38192 0.8395,-0.428867 0.31932,-0.04694 0.64519,0.01248 0.92735,0.169102 0.26283,-0.0959 0.49955,-0.25201 0.69106,-0.455816 0.20117,-0.198693 0.3538,-0.441036 0.44606,-0.708233 -0.11954,-0.224428 -0.18205,-0.474795 -0.18205,-0.72906 0,-0.254255 0.0625,-0.504622 0.18205,-0.72906 C 76.69046,6.980567 76.53787,6.738224 76.3367,6.539542 76.14519,6.335725 75.90847,6.179619 75.64564,6.083726 75.36348,6.240347 75.03761,6.299765 74.71829,6.252817 74.39896,6.205877 74.10391,6.055177 73.87879,5.823961 73.65227,5.587482 73.50651,5.285281 73.46248,4.960771 73.41848,4.636261 73.47838,4.306144 73.63369,4.017852 73.54079,3.750955 73.38826,3.508752 73.18773,3.309629 72.99536,3.10664 72.75896,2.950673 72.49667,2.853813 c -0.21814,0.12281 -0.46411,0.18733 -0.71437,0.18733 -0.25026,0 -0.49633,-0.06452 -0.71436,-0.18733 C 70.80651,2.955399 70.57,3.111881 70.3743,3.31269 c -0.1958,0.200809 -0.34617,0.441273 -0.44101,0.705162 0.15531,0.288292 0.21535,0.618409 0.17131,0.942919 -0.044,0.32451 -0.18979,0.626711 -0.41642,0.86319 -0.2262,0.23461 -0.52382,0.387429 -0.84637,0.434452 -0.32244,0.04701 -0.65142,-0.01442 -0.9352,-0.174687 z"
     fill="#2db269"
     id="path87"
     style="stroke-width:0.107407" />
  <path
     d="m 68.60509,12.719974 c 0.82145,0 1.48748,-0.681285 1.48748,-1.521855 0,-0.840441 -0.66603,-1.521791 -1.48748,-1.521791 -0.82156,0 -1.4876,0.68135 -1.4876,1.521791 0,0.84057 0.66604,1.521855 1.4876,1.521855 z"
     fill="#f5fff5"
     id="path89"
     style="stroke-width:0.107407" />
  <path
     d="m 86.47736,12.595059 h -1.91884 l 3.17357,-9.528046 h 2.15416 l 3.17346,9.528046 h -1.91636 l -0.66163,-2.2056 h -3.35981 z m 0.99985,-3.430914 h 2.64673 L 88.80058,4.603551 h -0.0343 z"
     fill="#f5fff5"
     id="path91"
     style="stroke-width:0.107407" />
  <path
     d="m 104.42814,5.047112 -1.38942,0.438662 c -0.2059,-0.771948 -0.73521,-1.181202 -1.56353,-1.181202 -1.10275,0 -1.62722,0.627356 -1.62722,1.776701 v 3.629361 c 0,1.019457 0.54154,1.715403 1.62722,1.715403 0.85034,0 1.32573,-0.333285 1.57824,-1.252241 l 1.40908,0.39455 c -0.37249,1.485058 -1.42379,2.168813 -3.15638,2.168813 -2.05363,0 -3.35981,-1.193511 -3.35981,-2.999566 V 6.095977 c 0,-1.960496 1.30618,-3.161301 3.37689,-3.161301 1.60273,0.0024 2.78389,0.918978 3.10493,2.112436 z"
     fill="#f5fff5"
     id="path93"
     style="stroke-width:0.107407" />
  <path
     d="m 115.84856,3.067013 v 1.414008 h -4.0396 v 2.59275 h 3.10515 V 8.31133 h -3.10515 v 2.884426 H 116 v 1.399303 h -6.07496 V 3.067013 Z"
     fill="#f5fff5"
     id="path95"
     style="stroke-width:0.107407" />
  <path
     d="m 1.89923,3.067013 v 9.528046 H 0 V 3.067013 Z"
     fill="#2db269"
     id="path97"
     style="stroke-width:0.107407" />
  <path
     d="m 9.60397,3.067013 3.83517,5.996663 h 0.0393 V 3.067013 h 1.66148 v 9.528046 H 13.81656 L 9.87598,6.367997 h -0.0343 v 6.227062 H 8.17771 V 3.067013 Z"
     fill="#2db269"
     id="path99"
     style="stroke-width:0.107407" />
  <path
     d="M 27.04744,4.873112 25.73149,5.387743 C 25.44234,4.615796 24.78061,4.235949 23.93273,4.235949 c -0.9802,0 -1.35763,0.438663 -1.35763,1.13709 0,1.835518 4.49683,1.602702 4.49683,4.656176 0,1.732578 -1.2571,2.6957 -3.22502,2.6957 -1.57813,0 -2.9407,-0.830796 -3.32544,-2.227629 l 1.42627,-0.423959 c 0.12405,0.398428 0.37528,0.745214 0.71522,0.98731 0.33984,0.242096 0.74971,0.366152 1.16688,0.353156 0.9802,0 1.4703,-0.392037 1.4703,-1.193425 0,-2.038915 -4.59973,-1.776701 -4.59973,-4.764002 -0.0172,-1.428712 1.1542,-2.519241 3.07057,-2.519241 1.69832,0 2.74963,0.757244 3.27646,1.935987 z"
     fill="#2db269"
     id="path101"
     style="stroke-width:0.107407" />
  <path
     d="m 39.58726,3.067013 v 6.525988 c 0,1.960529 -1.30619,3.131914 -3.61469,3.131914 -2.3084,0 -3.62436,-1.134652 -3.62436,-3.058393 V 3.067013 h 1.89918 v 6.599509 c 0,1.178763 0.71308,1.617415 1.7154,1.617415 1.10275,0 1.73012,-0.4901 1.73012,-1.617415 V 3.067013 Z"
     fill="#2db269"
     id="path103"
     style="stroke-width:0.107407" />
  <path
     d="m 48.59573,8.676472 h -1.1861 v 3.92095 H 45.52517 V 3.067013 h 3.34262 c 2.20551,0 3.18581,1.019458 3.18581,2.710383 0,1.355192 -0.61018,2.242312 -1.7473,2.563342 l 2.3403,4.254321 h -2.05363 z m -1.1861,-1.254711 h 1.37234 c 1.08815,0 1.40919,-0.524439 1.40919,-1.529192 0,-1.06357 -0.35541,-1.470364 -1.392,-1.470364 h -1.38953 z"
     fill="#2db269"
     id="path105"
     style="stroke-width:0.107407" />
</svg>
