<svg width="1080" height="149" viewBox="0 0 1080 149" fill="none" xmlns="http://www.w3.org/2000/svg">
<path fill-rule="evenodd" clip-rule="evenodd" d="M557.26 61.8544C559.707 60.9616 561.911 59.5082 563.694 57.6106C565.566 55.7689 566.987 53.5202 567.847 51.0396C566.397 48.3564 565.837 45.2821 566.247 42.26C566.657 39.2379 568.016 36.424 570.129 34.2241C572.224 32.0767 574.966 30.6769 577.934 30.2399C580.902 29.8029 583.931 30.3531 586.556 31.8056C588.998 30.9038 591.2 29.4517 592.99 27.5618C594.857 25.7079 596.278 23.4529 597.143 20.968C595.693 18.2848 595.133 15.2105 595.543 12.1884C595.953 9.16624 597.312 6.35239 599.425 4.15253C600.699 2.84864 602.222 1.81263 603.903 1.10531C605.584 0.398 607.389 0.0336456 609.213 0.0336456C611.036 0.0336456 612.841 0.398 614.522 1.10531C616.203 1.81263 617.726 2.84864 619.001 4.15253C621.11 6.35421 622.467 9.16781 622.877 12.1891C623.287 15.2104 622.729 18.2839 621.282 20.968C622.147 23.4476 623.559 25.7011 625.412 27.5618C627.214 29.4484 629.422 30.8997 631.869 31.8056C636.887 31.9419 641.655 34.0255 645.164 37.6154C648.673 41.2053 650.648 46.0197 650.669 51.0396C651.53 53.5202 652.951 55.7689 654.822 57.6106C656.606 59.5082 658.809 60.9616 661.256 61.8544C663.881 60.4019 666.91 59.8518 669.878 60.2887C672.846 60.7257 675.589 62.1255 677.684 64.2729C680.297 66.9568 681.759 70.5547 681.759 74.3006C681.759 78.0465 680.297 81.6445 677.684 84.3283C675.589 86.4757 672.846 87.8756 669.878 88.3125C666.91 88.7495 663.881 88.1994 661.256 86.7468C658.811 87.6308 656.607 89.0765 654.822 90.9678C652.955 92.8217 651.535 95.0768 650.669 97.5616C652.116 100.246 652.674 103.319 652.264 106.341C651.854 109.362 650.497 112.175 648.388 114.377C646.293 116.525 643.551 117.924 640.583 118.361C637.615 118.798 634.585 118.248 631.96 116.796C629.509 117.693 627.299 119.145 625.503 121.039C623.65 122.9 622.239 125.154 621.374 127.633C622.82 130.317 623.378 133.391 622.968 136.412C622.558 139.433 621.201 142.247 619.092 144.449C617.817 145.753 616.294 146.789 614.614 147.496C612.933 148.203 611.127 148.568 609.304 148.568C607.48 148.568 605.675 148.203 603.994 147.496C602.313 146.789 600.791 145.753 599.516 144.449C597.403 142.249 596.044 139.435 595.634 136.413C595.224 133.391 595.784 130.316 597.234 127.633C596.369 125.148 594.949 122.893 593.082 121.039C591.298 119.142 589.094 117.688 586.647 116.796C584.023 118.248 580.993 118.798 578.025 118.361C575.057 117.924 572.315 116.525 570.22 114.377C568.108 112.177 566.748 109.363 566.338 106.341C565.928 103.319 566.488 100.245 567.938 97.5616C567.073 95.0768 565.653 92.8217 563.786 90.9678C561.98 89.048 559.743 87.5855 557.26 86.7012C554.64 88.1932 551.6 88.7784 548.613 88.3658C545.626 87.9532 542.859 86.566 540.742 84.4196C538.128 81.7357 536.666 78.1378 536.666 74.3919C536.666 70.646 538.128 67.048 540.742 64.3642C542.832 62.181 545.586 60.7509 548.574 60.2969C551.562 59.8429 554.616 60.3906 557.26 61.8544V61.8544ZM562.782 67.5128C563.894 69.6024 564.476 71.9333 564.476 74.3006C564.476 76.6679 563.894 78.9989 562.782 81.0884C563.641 83.5708 565.053 85.8255 566.912 87.6823C568.707 89.5763 570.917 91.0289 573.369 91.9261C575.993 90.4735 579.023 89.9234 581.991 90.3603C584.959 90.7973 587.701 92.1971 589.796 94.3446C591.905 96.5462 593.262 99.3598 593.672 102.381C594.082 105.402 593.524 108.476 592.078 111.16C592.943 113.64 594.354 115.893 596.207 117.754C598.004 119.642 600.214 121.087 602.664 121.975C604.696 120.848 606.981 120.257 609.304 120.257C611.627 120.257 613.912 120.848 615.943 121.975C618.389 121.091 620.593 119.645 622.377 117.754C624.245 115.9 625.665 113.645 626.53 111.16C625.084 108.476 624.525 105.402 624.935 102.381C625.345 99.3598 626.702 96.5462 628.812 94.3446C630.907 92.1971 633.649 90.7973 636.617 90.3603C639.585 89.9234 642.614 90.4735 645.239 91.9261C647.69 91.0289 649.9 89.5763 651.696 87.6823C653.554 85.8255 654.967 83.5708 655.826 81.0884C654.713 78.9989 654.131 76.6679 654.131 74.3006C654.131 71.9333 654.713 69.6024 655.826 67.5128C654.967 65.0305 653.554 62.7758 651.696 60.919C649.9 59.0249 647.69 57.5724 645.239 56.6752C641.319 56.0938 637.629 54.4617 634.561 51.9523C630.195 48.2508 627.311 43.0983 626.439 37.4412C625.573 34.9563 624.153 32.7013 622.286 30.8474C620.548 28.9805 618.411 27.5298 616.035 26.6036C614.009 27.7472 611.722 28.3481 609.395 28.3481C607.069 28.3481 604.782 27.7472 602.756 26.6036C600.309 27.5096 598.101 28.9609 596.299 30.8474C594.445 32.7081 593.034 34.9616 592.169 37.4412C593.615 40.1253 594.174 43.1988 593.764 46.2201C593.354 49.2414 591.997 52.055 589.887 54.2567C587.792 56.4041 585.05 57.804 582.082 58.2409C579.114 58.6779 576.085 58.1278 573.46 56.6752C571.009 57.5724 568.799 59.0249 567.003 60.919C565.112 62.7664 563.668 65.0218 562.782 67.5128V67.5128Z" fill="#F5FFF5"/>
<path fill-rule="evenodd" clip-rule="evenodd" d="M632.234 56.6752C629.787 57.568 627.584 59.0214 625.8 60.919C623.928 62.7688 622.507 65.0251 621.647 67.5128C622.76 69.6024 623.342 71.9334 623.342 74.3006C623.342 76.6679 622.76 78.9989 621.647 81.0884C622.507 83.5761 623.928 85.8324 625.8 87.6823C627.782 89.8402 630.313 91.4178 633.124 92.2455C635.52 92.8387 633.808 96.2611 632.348 97.7442C630.888 99.2272 627.557 100.984 626.986 98.5427C626.219 95.865 624.841 93.4019 622.961 91.3471C621.08 89.2923 618.748 87.702 616.149 86.7012C613.536 88.1764 610.51 88.7521 607.538 88.3399C604.566 87.9277 601.811 86.5502 599.698 84.4196C597.096 81.7302 595.641 78.1344 595.641 74.3919C595.641 70.6494 597.096 67.0536 599.698 64.3642C601.795 62.2115 604.541 60.8084 607.514 60.3714C610.487 59.9343 613.521 60.4875 616.149 61.9457C618.59 61.0417 620.791 59.5899 622.583 57.7019C624.44 55.8532 625.852 53.6061 626.713 51.1309C625.266 48.4468 624.708 45.3733 625.118 42.352C625.528 39.3307 626.885 36.5171 628.994 34.3154C631.091 32.1627 633.837 30.7596 636.81 30.3226C639.783 29.8855 642.817 30.4387 645.445 31.8969C647.884 30.99 650.085 29.5386 651.879 27.6531C653.732 25.7924 655.143 23.5389 656.008 21.0593C654.562 18.3751 654.004 15.3017 654.414 12.2804C654.824 9.25907 656.181 6.44548 658.29 4.24379C659.565 2.93642 661.089 1.89745 662.772 1.18806C664.455 0.478681 666.263 0.113228 668.09 0.113228C669.916 0.113228 671.724 0.478681 673.407 1.18806C675.09 1.89745 676.614 2.93642 677.889 4.24379C679.998 6.44548 681.355 9.25907 681.765 12.2804C682.175 15.3017 681.617 18.3751 680.171 21.0593C681.101 23.5233 682.575 25.746 684.483 27.5618C686.281 29.4424 688.48 30.8931 690.917 31.8056C693.554 30.3249 696.607 29.7591 699.6 30.1967C702.592 30.6342 705.356 32.0504 707.459 34.2241C709.568 36.4258 710.925 39.2394 711.335 42.2607C711.745 45.282 711.187 48.3555 709.74 51.0396C710.601 53.5149 712.013 55.7619 713.87 57.6106C715.662 59.4986 717.863 60.9504 720.304 61.8544C722.953 60.3453 726.03 59.7637 729.048 60.2018C732.065 60.6399 734.849 62.0727 736.96 64.2729C739.59 66.9666 741.062 70.5818 741.062 74.3463C741.062 78.1107 739.59 81.726 736.96 84.4196C734.839 86.5766 732.063 87.9704 729.067 88.3832C726.07 88.796 723.021 88.2045 720.395 86.7012C717.956 87.5964 715.754 89.0406 713.961 90.9222C712.108 92.7829 710.697 95.0364 709.832 97.516C711.278 100.2 711.836 103.274 711.426 106.295C711.016 109.316 709.659 112.13 707.55 114.331C705.453 116.484 702.707 117.887 699.734 118.324C696.761 118.761 693.727 118.208 691.1 116.75C688.589 117.642 686.322 119.111 684.483 121.039C682.63 122.9 681.218 125.154 680.353 127.633C681.8 130.317 682.358 133.391 681.948 136.412C681.538 139.433 680.181 142.247 678.072 144.449C676.796 145.756 675.272 146.795 673.589 147.504C671.906 148.214 670.098 148.579 668.272 148.579C666.446 148.579 664.638 148.214 662.955 147.504C661.272 146.795 659.748 145.756 658.473 144.449C656.363 142.247 655.006 139.433 654.596 136.412C654.186 133.391 654.745 130.317 656.191 127.633C655.326 125.154 653.915 122.9 652.061 121.039C650.08 118.881 647.548 117.304 644.737 116.476C642.342 115.883 644.053 112.461 645.513 110.978C646.973 109.494 650.304 107.738 650.875 110.179C651.657 113.025 653.176 115.614 655.278 117.685C657.043 119.596 659.231 121.065 661.667 121.975C663.701 120.844 665.99 120.251 668.318 120.251C670.645 120.251 672.934 120.844 674.969 121.975C677.414 121.091 679.618 119.645 681.403 117.754C683.27 115.9 684.69 113.645 685.555 111.16C684.109 108.476 683.551 105.402 683.961 102.381C684.371 99.3599 685.728 96.5463 687.837 94.3446C689.933 92.1919 692.68 90.7888 695.653 90.3517C698.626 89.9147 701.66 90.4679 704.287 91.9261C706.734 91.0332 708.938 89.5798 710.721 87.6823C712.594 85.8324 714.015 83.5761 714.874 81.0884C713.761 78.9989 713.179 76.6679 713.179 74.3006C713.179 71.9334 713.761 69.6024 714.874 67.5128C714.015 65.0251 712.594 62.7688 710.721 60.919C708.938 59.0214 706.734 57.568 704.287 56.6752C701.66 58.1334 698.626 58.6866 695.653 58.2495C692.68 57.8125 689.933 56.4094 687.837 54.2567C685.728 52.055 684.371 49.2414 683.961 46.2201C683.551 43.1988 684.109 40.1253 685.555 37.4412C684.69 34.9563 683.27 32.7013 681.403 30.8474C679.612 28.9575 677.411 27.5054 674.969 26.6036C672.938 27.747 670.648 28.3477 668.318 28.3477C665.988 28.3477 663.697 27.747 661.667 26.6036C659.233 27.5494 657.031 29.0063 655.209 30.8759C653.386 32.7455 651.986 34.9843 651.103 37.4412C652.549 40.1253 653.108 43.1988 652.698 46.2201C652.288 49.2414 650.931 52.055 648.821 54.2567C646.715 56.441 643.944 57.8638 640.941 58.3016C637.939 58.7393 634.876 58.1673 632.234 56.6752V56.6752Z" fill="#2DB269"/>
<path d="M638.737 118.461C646.385 118.461 652.586 112.118 652.586 104.292C652.586 96.4672 646.385 90.1236 638.737 90.1236C631.088 90.1236 624.887 96.4672 624.887 104.292C624.887 112.118 631.088 118.461 638.737 118.461Z" fill="#F5FFF5"/>
<path d="M805.134 117.298H787.269L816.816 28.5886H836.872L866.418 117.298H848.576L842.416 96.7631H811.135L805.134 117.298ZM814.443 85.355H839.085L826.764 42.8943H826.445L814.443 85.355Z" fill="#F5FFF5"/>
<path d="M972.262 47.024L959.326 51.1081C957.409 43.921 952.481 40.1107 944.769 40.1107C934.502 40.1107 929.619 45.9516 929.619 56.6524V90.443C929.619 99.9345 934.661 106.414 944.769 106.414C952.686 106.414 957.112 103.311 959.463 94.7552L972.582 98.4286C969.114 112.255 959.326 118.621 943.195 118.621C924.075 118.621 911.914 107.509 911.914 90.694V56.7893C911.914 38.5364 924.075 27.3565 943.354 27.3565C958.276 27.3793 969.273 35.9125 972.262 47.024Z" fill="#F5FFF5"/>
<path d="M1078.59 28.5886V41.7535H1040.98V65.8929H1069.89V77.415H1040.98V104.27H1080V117.298H1023.44V28.5886H1078.59Z" fill="#F5FFF5"/>
<path d="M17.6825 28.5886V117.298H0V28.5886H17.6825Z" fill="#2DB269"/>
<path d="M89.4163 28.5886L125.123 84.4196H125.489V28.5886H140.958V117.298H128.637L91.9489 59.3219H91.6294V117.298H76.1373V28.5886H89.4163Z" fill="#2DB269"/>
<path d="M251.821 45.404L239.569 50.1954C236.877 43.0083 230.716 39.4718 222.822 39.4718C213.696 39.4718 210.182 43.5559 210.182 50.0585C210.182 67.1478 252.049 64.9802 252.049 93.4091C252.049 109.54 240.345 118.507 222.023 118.507C207.33 118.507 194.644 110.772 191.062 97.767L204.341 93.8198C205.496 97.5293 207.835 100.758 211 103.012C214.164 105.266 217.98 106.421 221.864 106.3C230.99 106.3 235.553 102.65 235.553 95.1888C235.553 76.2058 192.728 78.6471 192.728 50.8343C192.568 37.5325 203.474 27.3793 221.316 27.3793C237.128 27.3793 246.916 34.4295 251.821 45.404Z" fill="#2DB269"/>
<path d="M368.571 28.5886V89.3478C368.571 107.601 356.41 118.507 334.917 118.507C313.425 118.507 301.173 107.943 301.173 90.0323V28.5886H318.855V90.0323C318.855 101.007 325.494 105.091 334.826 105.091C345.093 105.091 350.934 100.528 350.934 90.0323V28.5886H368.571Z" fill="#2DB269"/>
<path d="M452.443 80.8146H441.4V117.32H423.855V28.5886H454.976C475.51 28.5886 484.637 38.0801 484.637 53.8232C484.637 66.4405 478.956 74.6999 468.369 77.6888L490.158 117.298H471.038L452.443 80.8146ZM441.4 69.1328H454.177C464.308 69.1328 467.297 64.2501 467.297 54.8955C467.297 44.9933 463.988 41.2059 454.337 41.2059H441.4V69.1328Z" fill="#2DB269"/>
</svg>
