<svg version="1.2" baseProfile="tiny-ps" xmlns="http://www.w3.org/2000/svg" viewBox="0 0 200 200" width="400" height="400"><title>logo-terraswap-svg</title><style>tspan { white-space:pre }.s0 { fill: #9cabdc } .s1 { fill: #0222ba } .s2 { fill: #526dc4 } </style><g ><path class="s0" d="m0.03 26.03c41.5 0.1 83.02-0.12 124.52 0.12c-18.33 3.08-35.79 12.85-46.23 28.47c-11.5 16.14-14.56 37.4-9.56 56.42c4.47 16.17 15.19 30.58 29.59 39.24c7.96 4.97 17.07 7.67 26.2 9.56c-41.5 0.24-83.02 0.01-124.52 0.12c-0.04-44.64-0.04-89.29 0-133.93z" /></g><g ><path class="s1" d="m78.32 54.62c10.44-15.62 27.9-25.39 46.23-28.47c2.9-0.24 5.82-0.12 8.72-0.13c0.21 44.64 0.21 89.32 0 133.97c-2.9-0.03-5.82 0.07-8.72-0.15c-9.13-1.89-18.24-4.59-26.2-9.56c-14.41-8.66-25.12-23.07-29.59-39.24c-5-19.02-1.94-40.27 9.56-56.42z" /></g><g ><path class="s2" d="m133.27 26.02c18.31-0.34 36.53 7.5 49.01 20.86c11.77 12.27 18.34 29.2 18.24 46.17c0.07 16.94-6.49 33.84-18.25 46.08c-12.48 13.36-30.68 21.2-49 20.87c0.21-44.66 0.21-89.33 0-133.97z" /></g></svg>