<svg width="24" height="24" viewBox="0 0 24 24" fill="none" xmlns="http://www.w3.org/2000/svg">
    <path fill-rule="evenodd" clip-rule="evenodd" d="M4 0a4 4 0 0 0-4 4v16a4 4 0 0 0 4 4h16a4 4 0 0 0 4-4V4a4 4 0 0 0-4-4H4zm2.598 8.997a.54.54 0 0 1 .033.247v6.124a.708.708 0 0 1-.187.608L5 17.741v.233h4.095v-.233l-1.444-1.765a.737.737 0 0 1-.2-.608v-5.296l3.596 7.902h.417l3.088-7.902v6.299c0 .167 0 .2-.11.31l-1.11 1.086V18h5.393v-.234l-1.073-1.06a.324.324 0 0 1-.122-.31V8.602a.324.324 0 0 1 .122-.31l1.098-1.06V7h-3.8l-2.71 6.81L9.16 7H5.172v.233l1.284 1.559a.54.54 0 0 1 .14.205z" fill="#fff" fill-opacity=".2"/>
</svg>
