<?xml version="1.0"?><svg width="60" height="60" xmlns="http://www.w3.org/2000/svg" xmlns:xlink="http://www.w3.org/1999/xlink">
 <title>White Plus</title>
 <defs>
  <linearGradient id="linearGradient575">
   <stop stop-color="#000" offset="0" id="stop576"/>
   <stop stop-color="#fff" offset="1" id="stop577"/>
  </linearGradient>
  <linearGradient xlink:href="#linearGradient575" id="linearGradient578"/>
 </defs>
 <g>
  <title>Layer 1</title>
  <path fill="#ffffff" stroke-width="1.0000000pt" id="path837" d="m23.51757,23.95549l0,-14.30111c0,-2.00059 0.547039,-3.62607 1.641109,-4.87644c1.09407,-1.28163 2.65704,-1.92245 4.68889,-1.92245c2.031847,0 3.594809,0.64082 4.68889,1.92245c1.125328,1.25037 1.688,2.87585 1.688,4.87644l0,14.30111l14.113548,0c2.06311,0 3.688591,0.56267 4.876442,1.688c1.219109,1.09407 1.828671,2.641411 1.828671,4.642c0,2.031851 -0.609562,3.610441 -1.828671,4.735781c-1.187851,1.125328 -2.813332,1.688 -4.876442,1.688l-14.113548,0l0,14.254219c0,2.031849 -0.562672,3.672962 -1.688,4.923332c-1.125332,1.25037 -2.688301,1.875549 -4.68889,1.875549c-2.000591,0 -3.56356,-0.625179 -4.68889,-1.875549c-1.09407,-1.25037 -1.641109,-2.891483 -1.641109,-4.923332l0,-14.254219l-14.11355,0c-2.000601,0 -3.626081,-0.609562 -4.876451,-1.828671c-1.21911,-1.25037 -1.82866,-2.78207 -1.82866,-4.59511c0,-2.000589 0.59392,-3.54793 1.78177,-4.642c1.21911,-1.12533 2.86023,-1.688 4.92334,-1.688l14.11355,0z"/>
 </g>
</svg>