<svg width="23" height="29" viewBox="0 0 23 29" fill="none" xmlns="http://www.w3.org/2000/svg">
    <path d="M20.161 9.625h-1.414v-2.75C18.747 3.08 15.577 0 11.673 0S4.6 3.08 4.6 6.875v2.75H3.185c-1.556 0-2.829 1.238-2.829 2.75v13.75c0 1.512 1.273 2.75 2.83 2.75H20.16c1.556 0 2.83-1.238 2.83-2.75v-13.75c0-1.512-1.274-2.75-2.83-2.75zM11.673 22c-1.556 0-2.83-1.238-2.83-2.75s1.274-2.75 2.83-2.75 2.83 1.238 2.83 2.75S13.229 22 11.673 22zM16.06 9.625H7.288v-2.75c0-2.351 1.966-4.263 4.385-4.263 2.42 0 4.386 1.912 4.386 4.263v2.75z" fill="#E24D7C"/>
</svg>
